#!OML:ASF F:\VICON\USERDATA\INSTALL\rory3\rory3.ASF
:FULLY-SPECIFIED
:DEGREES
129
root 0.178208 17.3094 -7.72693 1.95267 -3.9651 -4.6328
lowerback 6.03714 1.83217 4.92464
upperback 0.79368 2.82662 2.47971
thorax -2.45246 1.36997 -0.425798
lowerneck -16.5211 -2.59496 -8.75197
upperneck 20.1461 -2.19553 4.0204
head 9.21627 -1.25715 2.55659
rclavicle 5.06901e-015 -1.51076e-014
rhumerus -19.065 -7.00298 -78.9376
rradius 35.1693
rwrist 1.47674
rhand -15.2116 19.7028
rfingers 7.12502
rthumb 10.9607 -9.99106
lclavicle 5.06901e-015 -1.51076e-014
lhumerus -38.6014 14.8278 82.4979
lradius 20.8495
lwrist -17.8204
lhand -17.6656 20.7678
lfingers 7.12502
lthumb 8.59305 50.5729
rfemur 7.13993 6.72565 31.2159
rtibia 28.657
rfoot -21.6013 -12.6792
rtoes -19.4354
lfemur -23.1553 -1.06741 -12.9985
ltibia -2.54444e-014
lfoot 0.735355 5.22272
ltoes -9.34331
130
root 0.190515 17.2883 -7.52572 1.83808 -3.99735 -4.55364
lowerback 6.26357 1.85459 4.81293
upperback 0.783974 2.86577 2.49237
thorax -2.59368 1.38744 -0.362564
lowerneck -16.4444 -2.59439 -8.8448
upperneck 19.8837 -2.18696 4.07776
head 9.11254 -1.25037 2.5901
rclavicle 1.09332e-014 -3.69739e-014
rhumerus -19.0331 -6.74189 -78.8955
rradius 35.3586
rwrist 1.23661
rhand -15.1636 19.2679
rfingers 7.12502
rthumb 11.007 -10.4236
lclavicle 1.09332e-014 -3.69739e-014
lhumerus -38.9586 15.0857 82.4651
lradius 20.6591
lwrist -18.2323
lhand -16.8937 21.2871
lfingers 7.12502
lthumb 9.33791 51.0603
rfemur 7.67131 6.80321 31.1027
rtibia 29.1981
rfoot -21.7015 -12.476
rtoes -21.4046
lfemur -22.5586 -1.11358 -13.323
ltibia 7.95139e-014
lfoot 1.66492 4.88889
ltoes -9.1717
131
root 0.200253 17.2642 -7.31944 1.76955 -3.97037 -4.51646
lowerback 6.22777 1.81808 4.67236
upperback 0.860214 2.80303 2.54715
thorax -2.50674 1.36051 -0.220301
lowerneck -16.5531 -2.63678 -9.20884
upperneck 19.826 -2.22663 4.4656
head 9.12379 -1.25241 2.77901
rclavicle -1.87852e-014 3.97569e-016
rhumerus -18.8628 -6.29554 -78.8766
rradius 35.3687
rwrist 1.11151
rhand -15.128 19.5084
rfingers 7.12502
rthumb 11.0413 -10.1812
lclavicle -1.87852e-014 3.97569e-016
lhumerus -39.325 15.6455 82.3232
lradius 20.649
lwrist -18.9411
lhand -15.6633 22.7915
lfingers 7.12502
lthumb 10.525 52.508
rfemur 8.15243 6.8588 31.068
rtibia 29.7544
rfoot -21.3177 -12.2405
rtoes -23.061
lfemur -21.921 -1.20183 -13.589
ltibia -9.54166e-015
lfoot 2.51779 4.06458
ltoes -9.90861
132
root 0.217128 17.2527 -7.10462 1.66625 -4.07562 -4.46049
lowerback 6.11687 1.8529 4.63905
upperback 0.933713 2.83493 2.51387
thorax -2.3674 1.38016 -0.232819
lowerneck -16.4949 -2.70702 -9.27303
upperneck 19.8421 -2.3427 4.59341
head 9.12958 -1.29854 2.81956
rclavicle 3.80176e-014 3.37934e-014
rhumerus -19.0964 -6.0721 -78.9063
rradius 35.5988
rwrist 1.32503
rhand -15.2296 19.5675
rfingers 7.12502
rthumb 10.9433 -10.1273
lclavicle 3.80176e-014 3.37934e-014
lhumerus -39.5168 15.9542 82.1556
lradius 20.3508
lwrist -19.2364
lhand -15.2718 23.5944
lfingers 7.12502
lthumb 10.9026 53.2913
rfemur 8.59775 6.79832 30.886
rtibia 30.3333
rfoot -20.3544 -11.4971
rtoes -21.8088
lfemur -24.8802 -1.21509 -13.9033
ltibia 7.19138
lfoot -0.0160144 3.24319
ltoes -9.48113
133
root 0.236266 17.259 -6.87593 1.46576 -4.20113 -4.21941
lowerback 5.99769 1.94865 4.49197
upperback 1.05293 2.93594 2.39335
thorax -2.17482 1.43636 -0.275398
lowerneck -16.487 -2.73696 -9.0829
upperneck 19.8007 -2.42693 4.55866
head 9.11667 -1.32663 2.76464
rclavicle 8.49804e-015 1.74931e-014
rhumerus -19.3385 -6.13429 -78.9011
rradius 35.8647
rwrist 1.618
rhand -15.0222 19.3102
rfingers 7.12502
rthumb 11.1434 -10.3739
lclavicle 8.49804e-015 1.74931e-014
lhumerus -39.603 16.2373 81.9144
lradius 19.8025
lwrist -19.4662
lhand -15.1701 23.2125
lfingers 7.12502
lthumb 11.0007 52.9043
rfemur 9.16199 6.56897 30.4292
rtibia 30.9181
rfoot -19.2747 -10.7906
rtoes -22.1114
lfemur -25.6388 -1.20452 -14.4045
ltibia 10.428
lfoot -0.226367 2.33882
ltoes -8.79251
134
root 0.253687 17.2737 -6.64949 1.28217 -4.18963 -3.73345
lowerback 5.95269 2.03319 4.1072
upperback 1.13161 3.01354 2.20909
thorax -2.07545 1.48001 -0.253114
lowerneck -16.6504 -2.75813 -8.99308
upperneck 19.8291 -2.47998 4.62485
head 9.15929 -1.33598 2.76581
rclavicle -1.5207e-014 3.97569e-016
rhumerus -19.5389 -6.35488 -78.8218
rradius 36.0652
rwrist 1.74031
rhand -14.658 19.5046
rfingers 7.12502
rthumb 11.4946 -10.1603
lclavicle -1.5207e-014 3.97569e-016
lhumerus -39.8438 16.1743 81.8565
lradius 19.729
lwrist -19.4981
lhand -14.4209 23.7248
lfingers 7.12502
lthumb 11.7233 53.3767
rfemur 9.64512 6.34225 29.739
rtibia 31.5731
rfoot -18.549 -9.90899
rtoes -22.5786
lfemur -26.1699 -1.29938 -15.1329
ltibia 12.8717
lfoot 0.597241 1.57718
ltoes -8.22238
135
root 0.274985 17.282 -6.42457 1.13228 -4.09156 -3.48934
lowerback 5.96715 2.02505 3.97654
upperback 1.09735 2.99508 2.12654
thorax -2.12176 1.47046 -0.265461
lowerneck -16.4623 -2.71593 -9.01853
upperneck 19.7459 -2.45107 4.71156
head 9.09496 -1.31579 2.80352
rclavicle -3.60794e-014 7.95139e-016
rhumerus -19.8842 -6.37727 -78.763
rradius 36.2136
rwrist 1.83183
rhand -14.4278 19.5076
rfingers 7.12502
rthumb 11.7166 -10.1448
lclavicle -3.60794e-014 7.95139e-016
lhumerus -40.2309 15.9637 81.9015
lradius 19.8224
lwrist -19.5692
lhand -13.119 25.5075
lfingers 7.12502
lthumb 12.9785 55.0838
rfemur 9.95098 6.09512 29.3277
rtibia 32.3914
rfoot -17.4471 -9.137
rtoes -23.0795
lfemur -26.5465 -1.53949 -15.5114
ltibia 14.7671
lfoot 1.37586 1.19973
ltoes -9.98632
136
root 0.297192 17.292 -6.19354 1.07075 -4.12173 -3.24271
lowerback 5.96559 2.03488 3.78313
upperback 0.896833 3.00265 2.04688
thorax -2.3333 1.47019 -0.245111
lowerneck -15.9906 -2.70116 -9.05053
upperneck 19.6891 -2.47482 4.74615
head 8.99186 -1.33008 2.81861
rclavicle -1.41137e-014 -1.11319e-014
rhumerus -20.5201 -6.20447 -78.7871
rradius 36.4473
rwrist 1.80349
rhand -14.411 18.9778
rfingers 7.12502
rthumb 11.7328 -10.6736
lclavicle -1.41137e-014 -1.11319e-014
lhumerus -41.0178 15.6581 81.8772
lradius 20.0462
lwrist -19.5466
lhand -13.4161 24.7715
lfingers 7.12502
lthumb 12.6921 54.3658
rfemur 9.97048 6.07923 28.9216
rtibia 33.5904
rfoot -16.0948 -8.50833
rtoes -23.771
lfemur -26.6439 -1.6252 -15.8789
ltibia 16.075
lfoot 1.72515 0.592777
ltoes -11.2938
137
root 0.313417 17.3109 -5.96175 0.906427 -4.22745 -2.65233
lowerback 6.09937 2.07512 3.20072
upperback 0.689746 3.02834 1.85266
thorax -2.64058 1.48153 -0.133246
lowerneck -15.7901 -2.70959 -9.07013
upperneck 19.9777 -2.54837 4.92644
head 9.06203 -1.35323 2.87976
rclavicle 1.74931e-014 2.18663e-014
rhumerus -21.0405 -6.40605 -78.7915
rradius 35.8965
rwrist 2.78311
rhand -14.5846 19.7846
rfingers 7.12502
rthumb 11.5653 -9.87633
lclavicle 1.74931e-014 2.18663e-014
lhumerus -41.8964 15.292 81.8041
lradius 20.3011
lwrist -19.2529
lhand -14.5796 23.0843
lfingers 7.12502
lthumb 11.5702 52.7449
rfemur 9.90288 6.10346 28.1347
rtibia 35.1618
rfoot -14.5996 -7.834
rtoes -23.844
lfemur -26.4335 -1.69967 -16.5843
ltibia 17.108
lfoot 1.91619 -0.450097
ltoes -9.25641
